<svg width="500" height="500" viewBox="-1.2 -1.2 2.4 2.4" xmlns:xlink="http://www.w3.org/1999/xlink"    xmlns="http://www.w3.org/2000/svg">    <defs>        <filter id="shadow">            <!-- from https://codepen.io/sdthornton/pen/wBZdXq -->            <!-- box-shadow: 0 19px 38px rgba(0,0,0,0.30), 0 15px 12px rgba(0,0,0,0.22); -->            <feDropShadow dx="0" dy="" stdDeviation=".038" flood-color="rgba(0,0,0,0.30)" />            <feDropShadow dx="0" dy=".005" stdDeviation=".012" flood-color="rgba(0,0,0,0.22)" />        </filter>        <linearGradient id="prefix__c">            <stop offset="0" stop-color="#fff" />            <stop offset="1" stop-color="#fff" stop-opacity="0" />        </linearGradient>        <linearGradient id="prefix__a" color-interpolation="linearRGB" >            <stop offset="0" stop-color="#000081" />            <stop offset="1" stop-color="blue" />        </linearGradient>        <linearGradient xlink:href="#prefix__c" id="prefix__i" x1=".5" y1="0" x2=".5" y2="1"            gradientUnits="objectBoundingBox" />        <radialGradient xlink:href="#prefix__a" id="prefix__d" cx=".5" cy=".5" fx=".5" fy=".5" r=".5"            gradientUnits="objectBoundingBox" />    </defs>    <circle cx="" cy="" r="1" fill="url(#prefix__d)" style="filter:url(#shadow)" /><path d="M 0.005000 0.000000 H -0.005000 L 0 0.900000 Z" fill="url(#prefix__i)" transform="rotate(432.000000)" /><path d="M 0.010000 0.000000 H -0.010000 L 0 0.900000 Z" fill="url(#prefix__i)" transform="rotate(294.000000)" /><path d="M 0.020000 0.000000 H -0.020000 L 0 0.600000 Z" fill="url(#prefix__i)" transform="rotate(210.000000)" /><path d="M 0.015000 -1.000000 H -0.015000 L 0 -0.700000 Z" fill="url(#prefix__i)" transform="rotate(180.000000)" /><path d="M 0.005000 -1.000000 H -0.005000 L 0 -0.900000 Z" fill="url(#prefix__i)" transform="rotate(186.000000)" /><path d="M 0.005000 -1.000000 H -0.005000 L 0 -0.900000 Z" fill="url(#prefix__i)" transform="rotate(192.000000)" /><path d="M 0.005000 -1.000000 H -0.005000 L 0 -0.900000 Z" fill="url(#prefix__i)" transform="rotate(198.000000)" /><path d="M 0.005000 -1.000000 H -0.005000 L 0 -0.900000 Z" fill="url(#prefix__i)" transform="rotate(204.000000)" /><path d="M 0.010000 -1.000000 H -0.010000 L 0 -0.800000 Z" fill="url(#prefix__i)" transform="rotate(210.000000)" /><path d="M 0.005000 -1.000000 H -0.005000 L 0 -0.900000 Z" fill="url(#prefix__i)" transform="rotate(216.000000)" /><path d="M 0.005000 -1.000000 H -0.005000 L 0 -0.900000 Z" fill="url(#prefix__i)" transform="rotate(222.000000)" /><path d="M 0.005000 -1.000000 H -0.005000 L 0 -0.900000 Z" fill="url(#prefix__i)" transform="rotate(228.000000)" /><path d="M 0.005000 -1.000000 H -0.005000 L 0 -0.900000 Z" fill="url(#prefix__i)" transform="rotate(234.000000)" /><path d="M 0.010000 -1.000000 H -0.010000 L 0 -0.800000 Z" fill="url(#prefix__i)" transform="rotate(240.000000)" /><path d="M 0.005000 -1.000000 H -0.005000 L 0 -0.900000 Z" fill="url(#prefix__i)" transform="rotate(246.000000)" /><path d="M 0.005000 -1.000000 H -0.005000 L 0 -0.900000 Z" fill="url(#prefix__i)" transform="rotate(252.000000)" /><path d="M 0.005000 -1.000000 H -0.005000 L 0 -0.900000 Z" fill="url(#prefix__i)" transform="rotate(258.000000)" /><path d="M 0.005000 -1.000000 H -0.005000 L 0 -0.900000 Z" fill="url(#prefix__i)" transform="rotate(264.000000)" /><path d="M 0.015000 -1.000000 H -0.015000 L 0 -0.700000 Z" fill="url(#prefix__i)" transform="rotate(270.000000)" /><path d="M 0.005000 -1.000000 H -0.005000 L 0 -0.900000 Z" fill="url(#prefix__i)" transform="rotate(276.000000)" /><path d="M 0.005000 -1.000000 H -0.005000 L 0 -0.900000 Z" fill="url(#prefix__i)" transform="rotate(282.000000)" /><path d="M 0.005000 -1.000000 H -0.005000 L 0 -0.900000 Z" fill="url(#prefix__i)" transform="rotate(288.000000)" /><path d="M 0.005000 -1.000000 H -0.005000 L 0 -0.900000 Z" fill="url(#prefix__i)" transform="rotate(294.000000)" /><path d="M 0.010000 -1.000000 H -0.010000 L 0 -0.800000 Z" fill="url(#prefix__i)" transform="rotate(300.000000)" /><path d="M 0.005000 -1.000000 H -0.005000 L 0 -0.900000 Z" fill="url(#prefix__i)" transform="rotate(306.000000)" /><path d="M 0.005000 -1.000000 H -0.005000 L 0 -0.900000 Z" fill="url(#prefix__i)" transform="rotate(312.000000)" /><path d="M 0.005000 -1.000000 H -0.005000 L 0 -0.900000 Z" fill="url(#prefix__i)" transform="rotate(318.000000)" /><path d="M 0.005000 -1.000000 H -0.005000 L 0 -0.900000 Z" fill="url(#prefix__i)" transform="rotate(324.000000)" /><path d="M 0.010000 -1.000000 H -0.010000 L 0 -0.800000 Z" fill="url(#prefix__i)" transform="rotate(330.000000)" /><path d="M 0.005000 -1.000000 H -0.005000 L 0 -0.900000 Z" fill="url(#prefix__i)" transform="rotate(336.000000)" /><path d="M 0.005000 -1.000000 H -0.005000 L 0 -0.900000 Z" fill="url(#prefix__i)" transform="rotate(342.000000)" /><path d="M 0.005000 -1.000000 H -0.005000 L 0 -0.900000 Z" fill="url(#prefix__i)" transform="rotate(348.000000)" /><path d="M 0.005000 -1.000000 H -0.005000 L 0 -0.900000 Z" fill="url(#prefix__i)" transform="rotate(354.000000)" /><path d="M 0.015000 -1.000000 H -0.015000 L 0 -0.700000 Z" fill="url(#prefix__i)" transform="rotate(360.000000)" /><path d="M 0.005000 -1.000000 H -0.005000 L 0 -0.900000 Z" fill="url(#prefix__i)" transform="rotate(366.000000)" /><path d="M 0.005000 -1.000000 H -0.005000 L 0 -0.900000 Z" fill="url(#prefix__i)" transform="rotate(372.000000)" /><path d="M 0.005000 -1.000000 H -0.005000 L 0 -0.900000 Z" fill="url(#prefix__i)" transform="rotate(378.000000)" /><path d="M 0.005000 -1.000000 H -0.005000 L 0 -0.900000 Z" fill="url(#prefix__i)" transform="rotate(384.000000)" /><path d="M 0.010000 -1.000000 H -0.010000 L 0 -0.800000 Z" fill="url(#prefix__i)" transform="rotate(390.000000)" /><path d="M 0.005000 -1.000000 H -0.005000 L 0 -0.900000 Z" fill="url(#prefix__i)" transform="rotate(396.000000)" /><path d="M 0.005000 -1.000000 H -0.005000 L 0 -0.900000 Z" fill="url(#prefix__i)" transform="rotate(402.000000)" /><path d="M 0.005000 -1.000000 H -0.005000 L 0 -0.900000 Z" fill="url(#prefix__i)" transform="rotate(408.000000)" /><path d="M 0.005000 -1.000000 H -0.005000 L 0 -0.900000 Z" fill="url(#prefix__i)" transform="rotate(414.000000)" /><path d="M 0.010000 -1.000000 H -0.010000 L 0 -0.800000 Z" fill="url(#prefix__i)" transform="rotate(420.000000)" /><path d="M 0.005000 -1.000000 H -0.005000 L 0 -0.900000 Z" fill="url(#prefix__i)" transform="rotate(426.000000)" /><path d="M 0.005000 -1.000000 H -0.005000 L 0 -0.900000 Z" fill="url(#prefix__i)" transform="rotate(432.000000)" /><path d="M 0.005000 -1.000000 H -0.005000 L 0 -0.900000 Z" fill="url(#prefix__i)" transform="rotate(438.000000)" /><path d="M 0.005000 -1.000000 H -0.005000 L 0 -0.900000 Z" fill="url(#prefix__i)" transform="rotate(444.000000)" /><path d="M 0.015000 -1.000000 H -0.015000 L 0 -0.700000 Z" fill="url(#prefix__i)" transform="rotate(450.000000)" /><path d="M 0.005000 -1.000000 H -0.005000 L 0 -0.900000 Z" fill="url(#prefix__i)" transform="rotate(456.000000)" /><path d="M 0.005000 -1.000000 H -0.005000 L 0 -0.900000 Z" fill="url(#prefix__i)" transform="rotate(462.000000)" /><path d="M 0.005000 -1.000000 H -0.005000 L 0 -0.900000 Z" fill="url(#prefix__i)" transform="rotate(468.000000)" /><path d="M 0.005000 -1.000000 H -0.005000 L 0 -0.900000 Z" fill="url(#prefix__i)" transform="rotate(474.000000)" /><path d="M 0.010000 -1.000000 H -0.010000 L 0 -0.800000 Z" fill="url(#prefix__i)" transform="rotate(480.000000)" /><path d="M 0.005000 -1.000000 H -0.005000 L 0 -0.900000 Z" fill="url(#prefix__i)" transform="rotate(486.000000)" /><path d="M 0.005000 -1.000000 H -0.005000 L 0 -0.900000 Z" fill="url(#prefix__i)" transform="rotate(492.000000)" /><path d="M 0.005000 -1.000000 H -0.005000 L 0 -0.900000 Z" fill="url(#prefix__i)" transform="rotate(498.000000)" /><path d="M 0.005000 -1.000000 H -0.005000 L 0 -0.900000 Z" fill="url(#prefix__i)" transform="rotate(504.000000)" /><path d="M 0.010000 -1.000000 H -0.010000 L 0 -0.800000 Z" fill="url(#prefix__i)" transform="rotate(510.000000)" /><path d="M 0.005000 -1.000000 H -0.005000 L 0 -0.900000 Z" fill="url(#prefix__i)" transform="rotate(516.000000)" /><path d="M 0.005000 -1.000000 H -0.005000 L 0 -0.900000 Z" fill="url(#prefix__i)" transform="rotate(522.000000)" /><path d="M 0.005000 -1.000000 H -0.005000 L 0 -0.900000 Z" fill="url(#prefix__i)" transform="rotate(528.000000)" /><path d="M 0.005000 -1.000000 H -0.005000 L 0 -0.900000 Z" fill="url(#prefix__i)" transform="rotate(534.000000)" /></svg>