<svg width="500" height="500" viewBox="-1.2 -1.2 2.4 2.4" xmlns:xlink="http://www.w3.org/1999/xlink"    xmlns="http://www.w3.org/2000/svg">    <defs>        <filter id="shadow">            <!-- from https://codepen.io/sdthornton/pen/wBZdXq -->            <!-- box-shadow: 0 19px 38px rgba(0,0,0,0.30), 0 15px 12px rgba(0,0,0,0.22); -->            <feDropShadow dx="0" dy="" stdDeviation=".038" flood-color="rgba(0,0,0,0.30)" />            <feDropShadow dx="0" dy=".005" stdDeviation=".012" flood-color="rgba(0,0,0,0.22)" />        </filter>        <linearGradient id="prefix__c">            <stop offset="0" stop-color="#fff" />            <stop offset="1" stop-color="#fff" stop-opacity="0" />        </linearGradient>        <linearGradient id="prefix__a" color-interpolation="linearRGB" >            <stop offset="0" stop-color="#000081" />            <stop offset="1" stop-color="blue" />        </linearGradient>        <linearGradient xlink:href="#prefix__c" id="prefix__i" x1=".5" y1="0" x2=".5" y2="1"            gradientUnits="objectBoundingBox" />        <radialGradient xlink:href="#prefix__a" id="prefix__d" cx=".5" cy=".5" fx=".5" fy=".5" r=".5"            gradientUnits="objectBoundingBox" />    </defs>    <circle cx="" cy="" r="1" fill="url(#prefix__d)" style="filter:url(#shadow)" /><path d="M 0.002342 -0.002601 L -0.002342 0.002601 L 0.668830 0.602218 Z" fill="white"/>
<path d="M -0.004664 -0.008846 L 0.004664 0.008846 L 0.796123 -0.419748 Z" fill="white"/>
<path d="M 0.016346 0.011524 L -0.016346 -0.011524 L -0.345717 0.490388 Z" fill="white"/>
<path d="M 0.999914 -0.013090 L 0.999914 0.013090 L 0.800000 0.000000 Z" fill="white"/>
<path d="M 0.994969 0.100188 L 0.994056 0.108867 L 0.924905 0.097211 Z" fill="white"/>
<path d="M 0.979045 0.203642 L 0.977231 0.212178 L 0.909677 0.193358 Z" fill="white"/>
<path d="M 0.952396 0.304864 L 0.949699 0.313164 L 0.884483 0.287386 Z" fill="white"/>
<path d="M 0.915311 0.402747 L 0.911762 0.410719 L 0.849597 0.378265 Z" fill="white"/>
<path d="M 0.870356 0.492424 L 0.861629 0.507538 L 0.736122 0.425000 Z" fill="white"/>
<path d="M 0.811574 0.584250 L 0.806445 0.591310 L 0.752386 0.546640 Z" fill="white"/>
<path d="M 0.746057 0.665882 L 0.740218 0.672367 L 0.691125 0.622291 Z" fill="white"/>
<path d="M 0.672367 0.740218 L 0.665882 0.746057 L 0.622291 0.691125 Z" fill="white"/>
<path d="M 0.591310 0.806445 L 0.584250 0.811574 L 0.546640 0.752386 Z" fill="white"/>
<path d="M 0.507538 0.861629 L 0.492424 0.870356 L 0.425000 0.736122 Z" fill="white"/>
<path d="M 0.410719 0.911762 L 0.402747 0.915311 L 0.378265 0.849597 Z" fill="white"/>
<path d="M 0.313164 0.949699 L 0.304864 0.952396 L 0.287386 0.884483 Z" fill="white"/>
<path d="M 0.212178 0.977231 L 0.203642 0.979045 L 0.193358 0.909677 Z" fill="white"/>
<path d="M 0.108867 0.994056 L 0.100188 0.994969 L 0.097211 0.924905 Z" fill="white"/>
<path d="M 0.013090 0.999914 L -0.013090 0.999914 L 0.000000 0.800000 Z" fill="white"/>
<path d="M -0.100188 0.994969 L -0.108867 0.994056 L -0.097211 0.924905 Z" fill="white"/>
<path d="M -0.203642 0.979045 L -0.212178 0.977231 L -0.193358 0.909677 Z" fill="white"/>
<path d="M -0.304864 0.952396 L -0.313164 0.949699 L -0.287386 0.884483 Z" fill="white"/>
<path d="M -0.402747 0.915311 L -0.410719 0.911762 L -0.378265 0.849597 Z" fill="white"/>
<path d="M -0.492424 0.870356 L -0.507538 0.861629 L -0.425000 0.736122 Z" fill="white"/>
<path d="M -0.584250 0.811574 L -0.591310 0.806445 L -0.546640 0.752386 Z" fill="white"/>
<path d="M -0.665882 0.746057 L -0.672367 0.740218 L -0.622291 0.691125 Z" fill="white"/>
<path d="M -0.740218 0.672367 L -0.746057 0.665882 L -0.691125 0.622291 Z" fill="white"/>
<path d="M -0.806445 0.591310 L -0.811574 0.584250 L -0.752386 0.546640 Z" fill="white"/>
<path d="M -0.861629 0.507538 L -0.870356 0.492424 L -0.736122 0.425000 Z" fill="white"/>
<path d="M -0.911762 0.410719 L -0.915311 0.402747 L -0.849597 0.378265 Z" fill="white"/>
<path d="M -0.949699 0.313164 L -0.952396 0.304864 L -0.884483 0.287386 Z" fill="white"/>
<path d="M -0.977231 0.212178 L -0.979045 0.203642 L -0.909677 0.193358 Z" fill="white"/>
<path d="M -0.994056 0.108867 L -0.994969 0.100188 L -0.924905 0.097211 Z" fill="white"/>
<path d="M -0.999914 0.013090 L -0.999914 -0.013090 L -0.800000 0.000000 Z" fill="white"/>
<path d="M -0.994969 -0.100188 L -0.994056 -0.108867 L -0.924905 -0.097211 Z" fill="white"/>
<path d="M -0.979045 -0.203642 L -0.977231 -0.212178 L -0.909677 -0.193358 Z" fill="white"/>
<path d="M -0.952396 -0.304864 L -0.949699 -0.313164 L -0.884483 -0.287386 Z" fill="white"/>
<path d="M -0.915311 -0.402747 L -0.911762 -0.410719 L -0.849597 -0.378265 Z" fill="white"/>
<path d="M -0.870356 -0.492424 L -0.861629 -0.507538 L -0.736122 -0.425000 Z" fill="white"/>
<path d="M -0.811574 -0.584250 L -0.806445 -0.591310 L -0.752386 -0.546640 Z" fill="white"/>
<path d="M -0.746057 -0.665882 L -0.740218 -0.672367 L -0.691125 -0.622291 Z" fill="white"/>
<path d="M -0.672367 -0.740218 L -0.665882 -0.746057 L -0.622291 -0.691125 Z" fill="white"/>
<path d="M -0.591310 -0.806445 L -0.584250 -0.811574 L -0.546640 -0.752386 Z" fill="white"/>
<path d="M -0.507538 -0.861629 L -0.492424 -0.870356 L -0.425000 -0.736122 Z" fill="white"/>
<path d="M -0.410719 -0.911762 L -0.402747 -0.915311 L -0.378265 -0.849597 Z" fill="white"/>
<path d="M -0.313164 -0.949699 L -0.304864 -0.952396 L -0.287386 -0.884483 Z" fill="white"/>
<path d="M -0.212178 -0.977231 L -0.203642 -0.979045 L -0.193358 -0.909677 Z" fill="white"/>
<path d="M -0.108867 -0.994056 L -0.100188 -0.994969 L -0.097211 -0.924905 Z" fill="white"/>
<path d="M -0.013090 -0.999914 L 0.013090 -0.999914 L -0.000000 -0.800000 Z" fill="white"/>
<path d="M 0.100188 -0.994969 L 0.108867 -0.994056 L 0.097211 -0.924905 Z" fill="white"/>
<path d="M 0.203642 -0.979045 L 0.212178 -0.977231 L 0.193358 -0.909677 Z" fill="white"/>
<path d="M 0.304864 -0.952396 L 0.313164 -0.949699 L 0.287386 -0.884483 Z" fill="white"/>
<path d="M 0.402747 -0.915311 L 0.410719 -0.911762 L 0.378265 -0.849597 Z" fill="white"/>
<path d="M 0.492424 -0.870356 L 0.507538 -0.861629 L 0.425000 -0.736122 Z" fill="white"/>
<path d="M 0.584250 -0.811574 L 0.591310 -0.806445 L 0.546640 -0.752386 Z" fill="white"/>
<path d="M 0.665882 -0.746057 L 0.672367 -0.740218 L 0.622291 -0.691125 Z" fill="white"/>
<path d="M 0.740218 -0.672367 L 0.746057 -0.665882 L 0.691125 -0.622291 Z" fill="white"/>
<path d="M 0.806445 -0.591310 L 0.811574 -0.584250 L 0.752386 -0.546640 Z" fill="white"/>
<path d="M 0.861629 -0.507538 L 0.870356 -0.492424 L 0.736122 -0.425000 Z" fill="white"/>
<path d="M 0.911762 -0.410719 L 0.915311 -0.402747 L 0.849597 -0.378265 Z" fill="white"/>
<path d="M 0.949699 -0.313164 L 0.952396 -0.304864 L 0.884483 -0.287386 Z" fill="white"/>
<path d="M 0.977231 -0.212178 L 0.979045 -0.203642 L 0.909677 -0.193358 Z" fill="white"/>
<path d="M 0.994056 -0.108867 L 0.994969 -0.100188 L 0.924905 -0.097211 Z" fill="white"/>
</svg>